<svg xmlns="http://www.w3.org/2000/svg" fill="none" viewBox="0 0 300 96">
  <path fill="#3C3A3E" class="white" d="M113.6 12.3h-7.9v42.4h25.4v-7.1h-17.5V12.3zM134.5 54.7h7.6V22.9h-7.6v31.8zM168.8 45.8a9.5 9.5 0 01-7 2.7 9.2 9.2 0 01-6.7-2.7 10.4 10.4 0 010-14 9.2 9.2 0 016.8-2.7 9.5 9.5 0 016.9 2.8 9.9 9.9 0 010 13.9zm2.3-18.3c-1.1-3-5-5.3-10.2-5.3a15.2 15.2 0 00-11.4 4.8c-3 3.2-4.5 7-4.5 11.8 0 4.7 1.5 8.6 4.5 11.8a15.3 15.3 0 0011.4 4.8c5.2 0 9.1-2.2 10.2-5.3v20.5h7.6V23H171v4.6zM204.3 41.4c0 4.8-2.7 7.2-7 7.2-4.2 0-6.9-2.3-6.9-7.1V22.9h-7.6v19.2c0 4.3 1.4 7.6 4 10 2.8 2.3 6.3 3.4 10.5 3.4s7.7-1.1 10.5-3.4c2.8-2.4 4.2-5.8 4.2-10.2V23h-7.7v18.5zM222.7 35.4a6.9 6.9 0 012.8-4.9c1.8-1.3 4-2 6.2-2 2 0 4 .7 5.6 2a6.2 6.2 0 012.4 5h-17zm9-13.3c-5 0-8.9 1.5-12 4.6-3.2 3-4.7 7-4.7 12.1v.3c0 5 1.6 9 4.6 11.9 3.1 3 7.2 4.5 12.3 4.5a17.7 17.7 0 0013.4-5.7l-4.6-4.4a11.7 11.7 0 01-8.6 3.6c-5.6 0-9.3-3.2-9.6-8.3h24.8v-2.6c0-4.6-1.4-8.3-4.3-11.4a15 15 0 00-11.3-4.6zM292.5 23l-8.8 23.9-9.4-24h-13v-.8c0-3.2 1.3-4.5 4.1-4.5 1 0 2 0 3 .3v-6.5a17 17 0 00-3.4-.2c-3.6 0-6.2.7-7.9 2-2.4 2-3.4 4.6-3.4 9.4v.3h-5.2v7h5.2v24.8h7.5V29.8h8.3L280 56v.3c-.6 1.3-1.2 2.3-1.9 2.7a5 5 0 01-2.8.7c-1.2 0-2.4-.1-3.5-.5v6.6c1.2.3 2.5.5 3.7.5 3.2 0 5.8-.9 7.7-2.6a16 16 0 003.4-5.7l13.5-35h-7.6zM138.3 11.6a4.5 4.5 0 00-4 6.6 4.5 4.5 0 104-6.6z"/>
  <path fill="#7C808C" class="white-opaque" d="M232.7 89.7v-19h3.3v19h-3.3zm19-13h3.3v13h-3.4v-1.5a5.1 5.1 0 01-4.2 1.9 6 6 0 01-4.5-2 7 7 0 01-1.9-5c0-1.8.7-3.5 1.9-4.8a6 6 0 014.5-2c1.8 0 3.2.6 4.2 2v-1.6zm-6.3 9.1c.7.7 1.6 1 2.6 1s1.9-.3 2.6-1c.7-.6 1-1.5 1-2.6 0-1-.3-2-1-2.6-.7-.7-1.6-1-2.6-1s-1.9.3-2.6 1c-.7.6-1 1.5-1 2.6 0 1 .3 2 1 2.6zm22.8-9.5c1.8 0 3.3.7 4.5 2 1.3 1.3 1.9 3 1.9 4.9a7 7 0 01-1.9 4.9 6 6 0 01-4.5 2 5 5 0 01-4.2-2v1.6h-3.4V71.5h3.4v6.7a5 5 0 014.2-1.9zm-3.2 9.5c.7.7 1.6 1 2.6 1s1.9-.3 2.6-1c.7-.6 1-1.5 1-2.6 0-1-.3-2-1-2.6-.7-.7-1.6-1-2.6-1s-2 .3-2.6 1c-.7.6-1 1.5-1 2.6 0 1 .3 2 1 2.6zm17.4-5.4c0 .3.2.6.7.8l1.6.6 2 .6c.7.3 1.2.7 1.7 1.3.5.6.7 1.3.7 2.2 0 1.3-.5 2.4-1.5 3.1-1 .7-2.2 1-3.7 1-2.7 0-4.5-1-5.5-3l2.9-1.7c.4 1.2 1.2 1.7 2.6 1.7 1.2 0 1.8-.4 1.8-1.1 0-.3-.3-.6-.7-.8-.5-.3-1-.5-1.7-.6l-2-.7c-.7-.2-1.2-.7-1.7-1.2-.4-.6-.7-1.3-.7-2.1 0-1.3.5-2.3 1.4-3 1-.8 2.2-1.2 3.6-1.2 1 0 2 .3 2.9.7.8.5 1.5 1.2 2 2l-2.8 1.6a2.1 2.1 0 00-2.1-1.3 2 2 0 00-1.1.3c-.3.2-.4.4-.4.8z"/>
  <path fill="#3556BD" class="white" fill-rule="evenodd" d="M47.2 63.5h.6c1.5.1 3 .4 4.4.8 1 .4 2 .6 3 .6a9 9 0 008.5-12.2 15.8 15.8 0 0114.9-21c8.7 0 15.7 7.2 15.7 16a15.8 15.8 0 01-20 15.2 9 9 0 00-12 12 15.8 15.8 0 01-14.4 20.4H15.6C7.3 95.3.4 88.5 0 80V15.2C.4 6.8 7.3 0 15.7 0c8.5 0 15.4 6.8 15.7 15.2V59c0 2.6 2 4.6 4.5 4.6h11.3z" clip-rule="evenodd"/>
</svg>
