<svg xmlns="http://www.w3.org/2000/svg" fill="none" viewBox="0 0 126 32">
  <path fill="currentColor" fill-rule="evenodd" d="M44 4.72v17.89h10.725V19.6h-7.39V4.72H44zM57.553 4.407c-1.067 0-1.92.825-1.92 1.89s.853 1.89 1.92 1.89c1.041 0 1.895-.825 1.895-1.89s-.854-1.89-1.895-1.89zM55.953 22.61h3.201V9.192h-3.202V22.61zM70.413 18.829c-.773.772-1.76 1.171-2.908 1.171-1.147 0-2.08-.399-2.855-1.171-.747-.772-1.12-1.757-1.12-2.928 0-1.172.373-2.157 1.12-2.929.774-.771 1.708-1.17 2.855-1.17 1.148 0 2.135.399 2.908 1.17.8.772 1.201 1.757 1.201 2.929 0 1.171-.4 2.156-1.2 2.928zm.961-7.693c-.453-1.305-2.081-2.237-4.296-2.237-1.894 0-3.495.666-4.802 2.024-1.28 1.33-1.92 2.981-1.92 4.978 0 1.996.64 3.647 1.92 5.005 1.307 1.33 2.908 1.996 4.802 1.996 2.215 0 3.843-.932 4.296-2.236v6.416h3.202V9.192h-3.202v1.944zM85.194 16.992c0 2.023-1.147 3.035-2.934 3.035-1.788 0-2.935-.985-2.935-3.008V9.192h-3.229v8.093c0 1.837.587 3.221 1.735 4.206 1.147.986 2.614 1.465 4.402 1.465 1.787 0 3.255-.48 4.429-1.465 1.174-.985 1.76-2.422 1.76-4.286V9.192h-3.228v7.8zM92.719 14.463c.08-.825.48-1.517 1.2-2.076.72-.56 1.6-.852 2.588-.852.934 0 1.707.293 2.375.878.667.56 1.013 1.252 1.013 2.05H92.72zm3.788-5.644c-2.055 0-3.735.64-5.07 1.944-1.306 1.304-1.974 3.008-1.974 5.138v.106c0 2.103.668 3.78 1.975 5.031 1.307 1.252 3.041 1.89 5.149 1.89 2.268 0 4.135-.798 5.656-2.395l-1.921-1.864c-1.04 1.038-2.241 1.544-3.628 1.544-2.375 0-3.949-1.384-4.056-3.514h10.459c.027-.346.053-.719.053-1.118 0-1.916-.613-3.514-1.867-4.818-1.227-1.305-2.828-1.944-4.776-1.944zM121.934 9.192l-3.708 10.116-3.949-10.116h-5.523V8.83c0-1.358.56-1.89 1.761-1.89.56 0 .987.053 1.227.133V4.33c-.4-.08-.854-.106-1.387-.106-1.521 0-2.615.292-3.335.878-1.041.825-1.468 1.917-1.468 3.967v.123h-2.187v2.902h2.187V22.61h3.202V12.094h3.468l4.456 11.021-.024.124c-.213.56-.48.959-.774 1.145-.293.186-.667.293-1.174.293-.587 0-1.094-.08-1.494-.213v2.795c.454.133.987.213 1.574.213 1.361 0 2.428-.373 3.229-1.118.56-.56 1.04-1.358 1.44-2.396l5.708-14.766h-3.229zM16 21.333l.22.005c.515.02 1.011.115 1.479.272.327.116.678.18 1.044.18a3.048 3.048 0 002.865-4.09l.002-.001a5.333 5.333 0 113.595 3.432 3.048 3.048 0 00-4.085 4.04l-.003-.012a5.334 5.334 0 01-4.898 6.836L16 32H5.333a5.333 5.333 0 01-5.329-5.113L0 26.667V5.333l.004-.22a5.333 5.333 0 0110.658 0l.005.22V19.81c0 .842.682 1.524 1.524 1.524H16z" clip-rule="evenodd"/>
</svg>
