<svg xmlns="http://www.w3.org/2000/svg" fill="none" viewBox="0 0 132 132">
  <path fill="#fff" stroke="#4B74FF" stroke-linecap="round" stroke-linejoin="round" stroke-width="1.4" d="M66.7 25a2.6 2.6 0 012-2l4-1a.3.3 0 000-.6l-4-1a2.6 2.6 0 01-2-1.9l-.9-4a.3.3 0 00-.6 0l-1 4a2.6 2.6 0 01-2 2l-3.9 1a.3.3 0 000 .6l4 .9a2.6 2.6 0 012 2l.9 4a.3.3 0 00.6 0l1-4zM109.4 85.4a3.8 3.8 0 012.9-2.9l5.7-1.3a.5.5 0 000-1l-5.7-1.3a3.8 3.8 0 01-3-2.8l-1.3-5.8a.5.5 0 00-.9 0l-1.3 5.8a3.8 3.8 0 01-3 2.8l-5.7 1.4a.5.5 0 000 1l5.8 1.2a3.8 3.8 0 012.9 3l1.3 5.7a.5.5 0 001 0l1.3-5.8zM27.4 52.8a2 2 0 011.5-1.5l3.2-.8a.3.3 0 000-.5l-3.2-.7a2 2 0 01-1.5-1.5l-.7-3.2a.3.3 0 00-.6 0l-.7 3.2a2 2 0 01-1.5 1.5l-3.2.7a.3.3 0 000 .5l3.2.8a2 2 0 011.5 1.5l.7 3.2a.3.3 0 00.6 0l.7-3.2z"/>
  <path fill="#D6DAFF" stroke="#4B74FF" stroke-linecap="round" stroke-linejoin="round" stroke-width="1.4" d="M47.4 91.3l-7-7a28 28 0 00-9.2 5.6 48.4 48.4 0 00-6.6 16.3 1.4 1.4 0 001.5 1 48.4 48.4 0 0015.7-6.7 28 28 0 005.6-9.2v0z"/>
  <path fill="#fff" stroke="#4B74FF" stroke-linecap="round" stroke-linejoin="round" stroke-width="1.4" d="M44.8 88.7S42 95.8 36 97.2a1.4 1.4 0 01-1.6-1.6c1.4-6 8.5-8.7 8.5-8.7l1.8 1.8z"/>
  <path fill="#D6DAFF" stroke="#4B74FF" stroke-linecap="round" stroke-linejoin="round" stroke-width="1.4" d="M54 103.2L49 98c-2.5 1-4.8 2.3-6.7 4a35 35 0 00-4.8 11.9 1 1 0 00.7.6h.4a35 35 0 0011.4-4.8c1.7-2 3.1-4.2 4-6.6v0z"/>
  <path fill="#fff" stroke="#4B74FF" stroke-linecap="round" stroke-linejoin="round" stroke-width="1.4" d="M52.1 101.3s-2 5.1-6.3 6.1a1 1 0 01-1-1.1c.9-4.3 6-6.3 6-6.3l1.3 1.3z"/>
  <path fill="#D6DAFF" stroke="#4B74FF" stroke-linecap="round" stroke-linejoin="round" stroke-width="1.4" d="M33.6 82.7l-5.1-5c-2.4.9-4.7 2.2-6.6 4A35 35 0 0017 93.5a1 1 0 001.1.7 35 35 0 0011.3-4.8c1.8-2 3.2-4.2 4.1-6.7v0z"/>
  <path fill="#fff" stroke="#4B74FF" stroke-linecap="round" stroke-linejoin="round" stroke-width="1.4" d="M31.7 80.8s-2 5.2-6.3 6.2a1 1 0 01-1.1-1.2c1-4.3 6.1-6.2 6.1-6.2l1.3 1.2z"/>
  <path fill="#D6DAFF" d="M53.8 96.4c26.6-26.6 56.5-59.8 59.1-63l.5-1s7.4-17.9 5.6-19.7c-1.8-1.8-19.6 5.5-19.6 5.5-.4.2-.8.3-1 .6-3.3 2.6-36.5 32.5-63 59l18.4 18.6z"/>
  <path stroke="#4B74FF" stroke-linecap="round" stroke-linejoin="round" stroke-width="1.4" d="M53.8 96.4c26.6-26.6 56.5-59.8 59.1-63l.5-1s7.4-17.9 5.6-19.7c-1.8-1.8-19.6 5.5-19.6 5.5-.4.2-.8.3-1 .6-3.3 2.6-36.5 32.5-63 59l18.4 18.6zM98.3 18.8L113 33.3"/>
  <path fill="#fff" stroke="#4B74FF" stroke-linecap="round" stroke-linejoin="round" stroke-width="1.4" d="M77.7 37.4l-8.1 3.5s-29.3 21.4-41 32.7a1.5 1.5 0 000 2l6 6.1a1.5 1.5 0 002.1 0c14.4-14.4 35.4-36.5 35.4-36.5l5.6-7.8z"/>
  <path fill="#D6DAFF" stroke="#4B74FF" stroke-linecap="round" stroke-linejoin="round" stroke-width="1.4" d="M72 45.2l5.7-7.8-8.1 3.5c-.8 1.6.3 3 2.5 4.3zM36.7 81.7l5.8-5.8a9.6 9.6 0 00-13.6 0l5.8 5.8a1.5 1.5 0 002 0v0z"/>
  <path fill="#D6DAFF" stroke="#4B74FF" stroke-linecap="round" stroke-linejoin="round" stroke-width="1.4" d="M33.8 85l-7.7-7.8L29 76l6.2 6.2-1.3 2.8z"/>
  <path fill="#fff" stroke="#4B74FF" stroke-linecap="round" stroke-linejoin="round" stroke-width="1.4" d="M94.3 54L90.8 62s-21.4 29.3-32.7 41a1.5 1.5 0 01-2 0l-6.1-6a1.5 1.5 0 010-2.1c14.3-14.4 36.5-35.4 36.5-35.4l7.8-5.7z"/>
  <path fill="#D6DAFF" stroke="#4B74FF" stroke-linecap="round" stroke-linejoin="round" stroke-width="1.4" d="M86.5 59.6l7.8-5.7-3.5 8.2c-1.6.8-3-.4-4.3-2.5zM50 95c1.8-2 3.8-3.8 5.8-5.8a9.6 9.6 0 010 13.6L50 97a1.5 1.5 0 010-2v0zM46.8 97.9l7.7 7.7 1.3-2.8-6.3-6.2-2.7 1.3z"/>
  <path fill="#fff" d="M49.5 94.5a297 297 0 0032.6-40.2l4-8.6-8.7 3.9a297 297 0 00-40.5 33 1.5 1.5 0 00.3 1.7l10.2 10.2a1.5 1.5 0 002.1 0z"/>
  <path stroke="#4B74FF" stroke-linecap="round" stroke-linejoin="round" stroke-width="1.4" d="M49.5 94.5a297 297 0 0032.6-40.2l4-8.6-8.7 3.9a297 297 0 00-40.5 33 1.5 1.5 0 00.3 1.7l10.2 10.2a1.5 1.5 0 002.1 0v0z"/>
  <path fill="#D6DAFF" stroke="#4B74FF" stroke-linecap="round" stroke-linejoin="round" stroke-width="1.4" d="M82.1 54.3l4-8.6-8.7 3.9a8.3 8.3 0 004.7 4.7v0z"/>
  <path fill="#D6DAFF" d="M37.2 84.3l10.2 10.2a1.5 1.5 0 001.6.3c1.6-2.5.7-6.7-2.4-9.7-3-3-7.2-4-9.7-2.5a1.5 1.5 0 00.3 1.7z"/>
  <path stroke="#4B74FF" stroke-linecap="round" stroke-linejoin="round" stroke-width="1.4" d="M37.2 84.3l10.2 10.2a1.5 1.5 0 001.6.3c1.6-2.5.7-6.7-2.4-9.7-3-3-7.2-4-9.7-2.5a1.5 1.5 0 00.3 1.7v0z"/>
  <path fill="#D6DAFF" stroke="#4B74FF" stroke-linecap="round" stroke-linejoin="round" stroke-width="1.4" d="M44.1 95.2l-7.6-7.7 2.7-1.2 6.2 6.2-1.3 2.7z"/>
  <path fill="#fff" d="M112.9 33.3L98.3 18.8a890 890 0 00-20.6 18.6L94.3 54c10.1-11 17.4-19.1 18.6-20.7z"/>
  <path stroke="#4B74FF" stroke-linecap="round" stroke-linejoin="round" stroke-width="1.4" d="M112.9 33.3L98.3 18.8a890 890 0 00-20.6 18.6L94.3 54c10.1-11 17.4-19.1 18.6-20.7z"/>
</svg>
